# xmcd CD database file
#
# Track frame offsets:
#	150
#	23141
#	51532
#	63707
#	93058
#	117613
#	135062
#	156704
#	184060
#	202335
#	221253
#	235371
#
# Disc length: 3423 seconds
#
# Revision: 0
# Processed by: cddbd v1.5.2PL0 Copyright (c) Steve Scherf et al.
# Submitted via: CDex 1.70beta2
#
DISCID=b40d5d0c
DTITLE=木住野佳子 - Face
DYEAR=1900
DGENRE=Jazz
TTITLE0=Face
TTITLE1=Jealousy
TTITLE2=少女のワルツ
TTITLE3=雪待月
TTITLE4=And I Love Her
TTITLE5=極楽鳥
TTITLE6=Heat Wave
TTITLE7=凛嶺
TTITLE8=シチリアーノ
TTITLE9=地球兄弟
TTITLE10=Love of My Life
TTITLE11=星の贈り物
EXTD=
EXTT0=
EXTT1=
EXTT2=
EXTT3=
EXTT4=
EXTT5=
EXTT6=
EXTT7=
EXTT8=
EXTT9=
EXTT10=
EXTT11=
PLAYORDER=
